<svg width="4" height="6" fill="none" xmlns="http://www.w3.org/2000/svg"><path d="M1.86 1.64c.075.421.083 1.046.023 1.873-.015.165-.03.369-.043.611l-.036.586c-.01.144-.025.29-.043.44-.029.294-.08.447-.156.46-.055.01-.12-.019-.198-.086a.406.406 0 0 1-.132-.226c-.015-.087-.01-.3.015-.637.029-.338.047-.797.053-1.375.007-.578-.025-1.18-.096-1.805-.01-.124.024-.193.103-.207.087-.016.189.023.307.116.122.092.19.175.203.25Zm2.186 2.877c.299-.102.56-.19.782-.261.227-.073.393-.12.5-.138a.796.796 0 0 1 .253-.015c.062.005.098.035.108.09.02.11-.255.29-.825.538-.566.243-.987.389-1.262.438-.123.022-.26-.008-.413-.09-.15-.088-.235-.19-.256-.309-.017-.094.139-.317.466-.668.308-.323.603-.688.883-1.096.132-.194.234-.4.305-.615.075-.22.097-.414.068-.579-.03-.17-.092-.294-.183-.376a.376.376 0 0 0-.333-.087.643.643 0 0 0-.345.184 1.6 1.6 0 0 0-.235.286c-.058.087-.096.133-.116.136a.46.46 0 0 1-.252-.046c-.101-.043-.157-.094-.168-.153-.026-.146.066-.329.274-.549.213-.22.457-.356.733-.405a.905.905 0 0 1 .737.173c.22.16.355.384.407.671.151.851-.418 1.873-1.709 3.066.093-.029.286-.094.581-.195Z" fill="#2B526D"/></svg>