<svg width="5" height="6" fill="none" xmlns="http://www.w3.org/2000/svg"><path d="M2.446 4.898c.29-.125.542-.233.759-.322.22-.091.382-.15.487-.177a.796.796 0 0 1 .251-.035c.062 0 .1.028.115.082.028.108-.232.308-.78.6-.545.287-.953.466-1.224.537-.12.032-.26.012-.418-.058-.156-.075-.25-.17-.28-.286-.024-.093.113-.328.412-.703.281-.347.546-.734.794-1.163.116-.204.201-.416.255-.637.057-.226.064-.42.021-.582-.043-.167-.114-.287-.212-.36a.376.376 0 0 0-.338-.061.643.643 0 0 0-.33.21 1.6 1.6 0 0 0-.212.304c-.05.091-.085.14-.104.145a.46.46 0 0 1-.255-.027c-.104-.034-.164-.08-.18-.139-.037-.143.04-.333.23-.568.195-.237.428-.391.698-.462.271-.07.521-.033.75.114.231.142.384.355.458.637.218.836-.269 1.9-1.461 3.191.09-.036.278-.116.564-.24Z" fill="#2B526D"/></svg>