<svg width="29" height="9" fill="none" xmlns="http://www.w3.org/2000/svg"><path d="M2.83 8.1c-.447 0-.84-.087-1.18-.26a1.99 1.99 0 0 1-.78-.7C.69 6.84.6 6.51.6 6.15h.86c0 .327.127.6.38.82.26.22.59.33.99.33s.717-.113.95-.34c.24-.227.36-.53.36-.91 0-.433-.157-.757-.47-.97-.307-.22-.687-.33-1.14-.33V4c.453 0 .8-.12 1.04-.36.247-.24.37-.523.37-.85 0-.333-.09-.603-.27-.81-.173-.207-.437-.31-.79-.31-.327 0-.603.103-.83.31a.97.97 0 0 0-.34.76H.9c0-.367.083-.687.25-.96a1.8 1.8 0 0 1 .7-.64C2.15.98 2.49.9 2.87.9c.4 0 .743.087 1.03.26.293.173.517.4.67.68.16.28.24.587.24.92 0 .347-.107.66-.32.94-.213.28-.503.497-.87.65.413.12.747.327 1 .62.26.293.39.687.39 1.18 0 .393-.097.737-.29 1.03-.187.293-.443.52-.77.68-.327.16-.7.24-1.12.24Zm3.179-2c0-.46.117-.843.35-1.15.24-.313.537-.54.89-.68a1.657 1.657 0 0 1-.73-.6c-.173-.273-.26-.6-.26-.98 0-.333.083-.633.25-.9a1.9 1.9 0 0 1 .69-.65c.293-.16.623-.24.99-.24s.693.08.98.24a1.8 1.8 0 0 1 .69.65c.173.267.26.567.26.9 0 .38-.09.707-.27.98a1.594 1.594 0 0 1-.72.6c.353.14.647.367.88.68.24.307.36.69.36 1.15 0 .36-.097.693-.29 1-.187.3-.443.543-.77.73-.327.18-.7.27-1.12.27-.413 0-.787-.09-1.12-.27a2.22 2.22 0 0 1-.78-.73 1.888 1.888 0 0 1-.28-1Zm1.06-3.31c0 .327.11.593.33.8.227.207.49.31.79.31.3 0 .56-.103.78-.31.227-.207.34-.473.34-.8 0-.333-.107-.607-.32-.82-.207-.213-.473-.32-.8-.32-.327 0-.597.107-.81.32-.207.213-.31.487-.31.82ZM6.819 6c0 .287.063.53.19.73.133.2.303.353.51.46.213.107.437.16.67.16.233 0 .453-.053.66-.16A1.286 1.286 0 0 0 9.559 6c0-.253-.067-.48-.2-.68a1.383 1.383 0 0 0-.51-.49 1.293 1.293 0 0 0-.66-.18c-.233 0-.457.06-.67.18-.207.12-.377.283-.51.49-.127.2-.19.427-.19.68Zm4.499-1.5c0-.7.11-1.32.33-1.86.22-.54.523-.963.91-1.27a2.12 2.12 0 0 1 1.36-.47c.513 0 .963.157 1.35.47.393.307.7.73.92 1.27.22.54.33 1.16.33 1.86 0 .7-.11 1.32-.33 1.86-.22.54-.527.967-.92 1.28a2.11 2.11 0 0 1-1.35.46 2.15 2.15 0 0 1-1.36-.46c-.387-.313-.69-.74-.91-1.28-.22-.54-.33-1.16-.33-1.86Zm.85 0c0 .54.07 1.023.21 1.45.147.42.35.75.61.99s.57.36.93.36c.36 0 .67-.12.93-.36.267-.24.47-.57.61-.99.14-.427.21-.91.21-1.45 0-.547-.07-1.03-.21-1.45-.14-.42-.343-.75-.61-.99-.26-.24-.57-.36-.93-.36-.36 0-.67.12-.93.36s-.463.57-.61.99c-.14.42-.21.903-.21 1.45Zm5.146 0c0-.7.11-1.32.33-1.86.22-.54.523-.963.91-1.27a2.12 2.12 0 0 1 1.36-.47c.513 0 .963.157 1.35.47.393.307.7.73.92 1.27.22.54.33 1.16.33 1.86 0 .7-.11 1.32-.33 1.86-.22.54-.527.967-.92 1.28a2.11 2.11 0 0 1-1.35.46 2.15 2.15 0 0 1-1.36-.46c-.387-.313-.69-.74-.91-1.28-.22-.54-.33-1.16-.33-1.86Zm.85 0c0 .54.07 1.023.21 1.45.147.42.35.75.61.99s.57.36.93.36c.36 0 .67-.12.93-.36.267-.24.47-.57.61-.99.14-.427.21-.91.21-1.45 0-.547-.07-1.03-.21-1.45-.14-.42-.343-.75-.61-.99-.26-.24-.57-.36-.93-.36-.36 0-.67.12-.93.36s-.463.57-.61.99c-.14.42-.21.903-.21 1.45ZM23.88 8V6.64h-.87v-.65h.87V5.1h-.87v-.76h.87V.86h1.88c.873 0 1.52.177 1.94.53.427.353.64.867.64 1.54 0 .68-.23 1.213-.69 1.6-.46.38-1.136.57-2.03.57h-.84v.89h1.65v.65h-1.65V8h-.9Zm1.61-3.66c.607 0 1.077-.1 1.41-.3.34-.2.51-.56.51-1.08 0-.453-.14-.79-.42-1.01-.28-.22-.716-.33-1.31-.33h-.9v2.72h.71Z" fill="#000"/></svg>