<svg width="4" height="6" fill="none" xmlns="http://www.w3.org/2000/svg"><path d="M3.444 2.888c.113.317.038.685-.224 1.105-.264.417-.596.696-.995.838a.835.835 0 0 1-.673-.028c-.208-.109-.36-.299-.457-.57C.997 3.958.97 3.6 1.011 3.155c.046-.445.13-.857.254-1.237.124-.38.255-.71.392-.993.141-.283.25-.438.325-.465a.505.505 0 0 1 .254-.02c.089.01.14.037.155.078.014.038-.02.147-.1.328-.317.72-.526 1.27-.629 1.65.432-.11.818-.122 1.159-.036.343.082.55.225.623.428ZM2.113 4.355c.249-.088.46-.263.635-.525.178-.263.23-.496.158-.7-.05-.143-.2-.238-.446-.287-.242-.05-.539-.035-.889.043-.086.485-.072.89.043 1.213.046.128.112.213.199.255.09.04.19.04.3.001Z" fill="#143A55"/></svg>