<svg width="91" height="94" fill="none" xmlns="http://www.w3.org/2000/svg"><g opacity=".8"><mask id="a" style="mask-type:alpha" maskUnits="userSpaceOnUse" x="8" y="11" width="72" height="72"><circle cx="44" cy="47" r="35" transform="rotate(-116.461 44 47)" fill="#7636FE"/></mask><g mask="url(#a)" fill-opacity=".8"><path fill="#002D53" d="M28.262 93.929-3.123 30.872 59.544-.318l31.385 63.055z"/><path fill="#00C280" d="M28.262 93.929-3.123 30.872.38 29.13l31.385 63.056zM35.269 90.442 3.884 27.386l3.503-1.743 31.385 63.056zM42.275 86.954 10.89 23.898l3.503-1.743L45.778 85.21zM49.28 83.467 17.897 20.411l3.503-1.743 31.385 63.056zM56.287 79.98 24.902 16.924l3.503-1.743 31.386 63.056zM63.293 76.494 31.908 13.437l3.503-1.743L66.796 74.75zM70.299 73.007 38.914 9.95l3.503-1.743 31.385 63.056zM77.306 69.52 45.92 6.462l3.503-1.743 31.385 63.056zM84.312 66.031 52.927 2.975l3.503-1.743 31.385 63.056z"/></g></g></svg>