<svg width="57" height="58" viewBox="0 0 57 58" fill="none" xmlns="http://www.w3.org/2000/svg">
<g opacity="0.8">
<mask id="mask0_91_2229" style="mask-type:alpha" maskUnits="userSpaceOnUse" x="5" y="6" width="46" height="46">
<circle cx="27.971" cy="28.971" r="22.1074" transform="rotate(22.9173 27.971 28.971)" fill="#7636FE"/>
</mask>
<g mask="url(#mask0_91_2229)">
<rect x="16.2173" width="44.4893" height="44.2147" transform="rotate(22.9173 16.2173 0)" fill="#FFC301" fill-opacity="0.8"/>
<rect x="16.2173" width="44.4893" height="2.47163" transform="rotate(22.9173 16.2173 0)" fill="#02C382" fill-opacity="0.8"/>
<rect x="14.2924" y="4.55273" width="44.4893" height="2.47163" transform="rotate(22.9173 14.2924 4.55273)" fill="#02C382" fill-opacity="0.8"/>
<rect x="12.3676" y="9.10645" width="44.4893" height="2.47163" transform="rotate(22.9173 12.3676 9.10645)" fill="#02C382" fill-opacity="0.8"/>
<rect x="10.4426" y="13.6592" width="44.4893" height="2.47163" transform="rotate(22.9173 10.4426 13.6592)" fill="#02C382" fill-opacity="0.8"/>
<rect x="8.51758" y="18.2119" width="44.4893" height="2.47163" transform="rotate(22.9173 8.51758 18.2119)" fill="#02C382" fill-opacity="0.8"/>
<rect x="6.59265" y="22.7656" width="44.4893" height="2.47163" transform="rotate(22.9173 6.59265 22.7656)" fill="#02C382" fill-opacity="0.8"/>
<rect x="4.66785" y="27.3184" width="44.4893" height="2.47163" transform="rotate(22.9173 4.66785 27.3184)" fill="#02C382" fill-opacity="0.8"/>
<rect x="2.74292" y="31.8711" width="44.4893" height="2.47163" transform="rotate(22.9173 2.74292 31.8711)" fill="#02C382" fill-opacity="0.8"/>
<rect x="0.817871" y="36.4248" width="44.4893" height="2.47163" transform="rotate(22.9173 0.817871 36.4248)" fill="#02C382" fill-opacity="0.8"/>
</g>
</g>
</svg>
