<!-- Generated by IcoMoon.io -->
<svg version="1.1" xmlns="http://www.w3.org/2000/svg" width="224" height="32" viewBox="0 0 224 32">
<title>Arrow4m</title>
<path d="M217.128 17.128c0.288-0.289 0.465-0.688 0.465-1.128s-0.178-0.839-0.465-1.128l0 0-10.168-10.184c-0.29-0.29-0.69-0.469-1.132-0.469-0.884 0-1.601 0.717-1.601 1.601 0 0.442 0.179 0.842 0.469 1.132l9.040 9.048-9.048 9.048c-0.29 0.29-0.469 0.69-0.469 1.132 0 0.884 0.717 1.601 1.601 1.601 0.442 0 0.842-0.179 1.132-0.469l10.176-10.184zM0 17.6h216v-3.2h-216v3.2z"></path>
</svg>
