<!-- Generated by IcoMoon.io -->
<svg version="1.1" xmlns="http://www.w3.org/2000/svg" width="83" height="32" viewBox="0 0 83 32">
<title>Unionm</title>
<path fill="#fa3465" d="M0 1.6c0 0.884 0.716 1.6 1.6 1.6v0h80c0.884 0 1.6-0.716 1.6-1.6s-0.716-1.6-1.6-1.6v0h-80c-0.884 0-1.6 0.716-1.6 1.6v0zM0 11.2c0 0.884 0.716 1.6 1.6 1.6v0h80c0.884 0 1.6-0.716 1.6-1.6s-0.716-1.6-1.6-1.6v0h-80c-0.884 0-1.6 0.716-1.6 1.6v0zM83.2 20.8c0 0.884-0.716 1.6-1.6 1.6v0h-80c-0.884 0-1.6-0.716-1.6-1.6s0.716-1.6 1.6-1.6v0h80c0.884 0 1.6 0.716 1.6 1.6v0zM41.6 30.4c0 0.884 0.716 1.6 1.6 1.6v0h38.4c0.884 0 1.6-0.716 1.6-1.6s-0.716-1.6-1.6-1.6v0h-38.4c-0.884 0-1.6 0.716-1.6 1.6v0z"></path>
<path fill="#000" opacity="0.2" d="M0 1.6c0 0.884 0.716 1.6 1.6 1.6v0h80c0.884 0 1.6-0.716 1.6-1.6s-0.716-1.6-1.6-1.6v0h-80c-0.884 0-1.6 0.716-1.6 1.6v0zM0 11.2c0 0.884 0.716 1.6 1.6 1.6v0h80c0.884 0 1.6-0.716 1.6-1.6s-0.716-1.6-1.6-1.6v0h-80c-0.884 0-1.6 0.716-1.6 1.6v0zM83.2 20.8c0 0.884-0.716 1.6-1.6 1.6v0h-80c-0.884 0-1.6-0.716-1.6-1.6s0.716-1.6 1.6-1.6v0h80c0.884 0 1.6 0.716 1.6 1.6v0zM41.6 30.4c0 0.884 0.716 1.6 1.6 1.6v0h38.4c0.884 0 1.6-0.716 1.6-1.6s-0.716-1.6-1.6-1.6v0h-38.4c-0.884 0-1.6 0.716-1.6 1.6v0z"></path>
</svg>
