<svg width="29" height="9" viewBox="0 0 29 9" fill="none" xmlns="http://www.w3.org/2000/svg">
<path d="M2.83 8.1C2.38333 8.1 1.99 8.01333 1.65 7.84C1.31667 7.66667 1.05667 7.43333 0.87 7.14C0.69 6.84 0.6 6.51 0.6 6.15H1.46C1.46 6.47667 1.58667 6.75 1.84 6.97C2.1 7.19 2.43 7.3 2.83 7.3C3.23 7.3 3.54667 7.18667 3.78 6.96C4.02 6.73333 4.14 6.43 4.14 6.05C4.14 5.61667 3.98333 5.29333 3.67 5.08C3.36333 4.86 2.98333 4.75 2.53 4.75V4C2.98333 4 3.33 3.88 3.57 3.64C3.81667 3.4 3.94 3.11667 3.94 2.79C3.94 2.45667 3.85 2.18667 3.67 1.98C3.49667 1.77333 3.23333 1.67 2.88 1.67C2.55333 1.67 2.27667 1.77333 2.05 1.98C1.82333 2.18 1.71 2.43333 1.71 2.74H0.9C0.9 2.37333 0.983333 2.05333 1.15 1.78C1.32333 1.50667 1.55667 1.29333 1.85 1.14C2.15 0.98 2.49 0.9 2.87 0.9C3.27 0.9 3.61333 0.986666 3.9 1.16C4.19333 1.33333 4.41667 1.56 4.57 1.84C4.73 2.12 4.81 2.42667 4.81 2.76C4.81 3.10667 4.70333 3.42 4.49 3.7C4.27667 3.98 3.98667 4.19667 3.62 4.35C4.03333 4.47 4.36667 4.67667 4.62 4.97C4.88 5.26333 5.01 5.65667 5.01 6.15C5.01 6.54333 4.91333 6.88667 4.72 7.18C4.53333 7.47333 4.27667 7.7 3.95 7.86C3.62333 8.02 3.25 8.1 2.83 8.1ZM6.00898 6.1C6.00898 5.64 6.12565 5.25667 6.35898 4.95C6.59898 4.63667 6.89565 4.41 7.24898 4.27C6.94232 4.13667 6.69898 3.93667 6.51898 3.67C6.34565 3.39667 6.25898 3.07 6.25898 2.69C6.25898 2.35667 6.34232 2.05667 6.50898 1.79C6.68232 1.51667 6.91232 1.3 7.19898 1.14C7.49232 0.98 7.82232 0.9 8.18898 0.9C8.55565 0.9 8.88232 0.98 9.16898 1.14C9.46232 1.3 9.69232 1.51667 9.85898 1.79C10.0323 2.05667 10.119 2.35667 10.119 2.69C10.119 3.07 10.029 3.39667 9.84898 3.67C9.67565 3.93667 9.43565 4.13667 9.12898 4.27C9.48232 4.41 9.77565 4.63667 10.009 4.95C10.249 5.25667 10.369 5.64 10.369 6.1C10.369 6.46 10.2723 6.79333 10.079 7.1C9.89232 7.4 9.63565 7.64333 9.30898 7.83C8.98232 8.01 8.60898 8.1 8.18898 8.1C7.77565 8.1 7.40232 8.01 7.06898 7.83C6.74232 7.64333 6.48232 7.4 6.28898 7.1C6.10232 6.79333 6.00898 6.46 6.00898 6.1ZM7.06898 2.79C7.06898 3.11667 7.17898 3.38333 7.39898 3.59C7.62565 3.79667 7.88898 3.9 8.18898 3.9C8.48898 3.9 8.74898 3.79667 8.96898 3.59C9.19565 3.38333 9.30898 3.11667 9.30898 2.79C9.30898 2.45667 9.20232 2.18333 8.98898 1.97C8.78232 1.75667 8.51565 1.65 8.18898 1.65C7.86232 1.65 7.59232 1.75667 7.37898 1.97C7.17232 2.18333 7.06898 2.45667 7.06898 2.79ZM6.81898 6C6.81898 6.28667 6.88232 6.53 7.00898 6.73C7.14232 6.93 7.31232 7.08333 7.51898 7.19C7.73232 7.29667 7.95565 7.35 8.18898 7.35C8.42232 7.35 8.64232 7.29667 8.84898 7.19C9.06232 7.08333 9.23232 6.93 9.35898 6.73C9.49232 6.53 9.55898 6.28667 9.55898 6C9.55898 5.74667 9.49232 5.52 9.35898 5.32C9.23232 5.11333 9.06232 4.95 8.84898 4.83C8.64232 4.71 8.42232 4.65 8.18898 4.65C7.95565 4.65 7.73232 4.71 7.51898 4.83C7.31232 4.95 7.14232 5.11333 7.00898 5.32C6.88232 5.52 6.81898 5.74667 6.81898 6ZM11.318 4.5C11.318 3.8 11.428 3.18 11.648 2.64C11.868 2.1 12.1713 1.67667 12.558 1.37C12.9513 1.05667 13.4046 0.9 13.918 0.9C14.4313 0.9 14.8813 1.05667 15.268 1.37C15.6613 1.67667 15.968 2.1 16.188 2.64C16.408 3.18 16.518 3.8 16.518 4.5C16.518 5.2 16.408 5.82 16.188 6.36C15.968 6.9 15.6613 7.32667 15.268 7.64C14.8813 7.94667 14.4313 8.1 13.918 8.1C13.4046 8.1 12.9513 7.94667 12.558 7.64C12.1713 7.32667 11.868 6.9 11.648 6.36C11.428 5.82 11.318 5.2 11.318 4.5ZM12.168 4.5C12.168 5.04 12.238 5.52333 12.378 5.95C12.5246 6.37 12.728 6.7 12.988 6.94C13.248 7.18 13.558 7.3 13.918 7.3C14.278 7.3 14.588 7.18 14.848 6.94C15.1146 6.7 15.318 6.37 15.458 5.95C15.598 5.52333 15.668 5.04 15.668 4.5C15.668 3.95333 15.598 3.47 15.458 3.05C15.318 2.63 15.1146 2.3 14.848 2.06C14.588 1.82 14.278 1.7 13.918 1.7C13.558 1.7 13.248 1.82 12.988 2.06C12.728 2.3 12.5246 2.63 12.378 3.05C12.238 3.47 12.168 3.95333 12.168 4.5ZM17.3141 4.5C17.3141 3.8 17.4241 3.18 17.6441 2.64C17.8641 2.1 18.1674 1.67667 18.5541 1.37C18.9474 1.05667 19.4007 0.9 19.9141 0.9C20.4274 0.9 20.8774 1.05667 21.2641 1.37C21.6574 1.67667 21.9641 2.1 22.1841 2.64C22.4041 3.18 22.5141 3.8 22.5141 4.5C22.5141 5.2 22.4041 5.82 22.1841 6.36C21.9641 6.9 21.6574 7.32667 21.2641 7.64C20.8774 7.94667 20.4274 8.1 19.9141 8.1C19.4007 8.1 18.9474 7.94667 18.5541 7.64C18.1674 7.32667 17.8641 6.9 17.6441 6.36C17.4241 5.82 17.3141 5.2 17.3141 4.5ZM18.1641 4.5C18.1641 5.04 18.2341 5.52333 18.3741 5.95C18.5207 6.37 18.7241 6.7 18.9841 6.94C19.2441 7.18 19.5541 7.3 19.9141 7.3C20.2741 7.3 20.5841 7.18 20.8441 6.94C21.1107 6.7 21.3141 6.37 21.4541 5.95C21.5941 5.52333 21.6641 5.04 21.6641 4.5C21.6641 3.95333 21.5941 3.47 21.4541 3.05C21.3141 2.63 21.1107 2.3 20.8441 2.06C20.5841 1.82 20.2741 1.7 19.9141 1.7C19.5541 1.7 19.2441 1.82 18.9841 2.06C18.7241 2.3 18.5207 2.63 18.3741 3.05C18.2341 3.47 18.1641 3.95333 18.1641 4.5ZM23.8802 8V6.64H23.0102V5.99H23.8802V5.1H23.0102V4.34H23.8802V0.86H25.7602C26.6335 0.86 27.2802 1.03667 27.7002 1.39C28.1268 1.74333 28.3402 2.25667 28.3402 2.93C28.3402 3.61 28.1102 4.14333 27.6502 4.53C27.1902 4.91 26.5135 5.1 25.6202 5.1H24.7802V5.99H26.4302V6.64H24.7802V8H23.8802ZM25.4902 4.34C26.0968 4.34 26.5668 4.24 26.9002 4.04C27.2402 3.84 27.4102 3.48 27.4102 2.96C27.4102 2.50667 27.2702 2.17 26.9902 1.95C26.7102 1.73 26.2735 1.62 25.6802 1.62H24.7802V4.34H25.4902Z" fill="black"/>
</svg>
